# xmcd CD database file
#
# Track frame offsets:
#	150
#	22717
#	36475
#	51276
#	65854
#	76862
#	90624
#	107917
#	120337
#	137245
#	150091
#	163653
#	186080
#
# Disc length: 2709 seconds
#
# Revision: 0
# Processed by: cddbd v1.5.1PL2 Copyright (c) Steve Scherf et al.
# Submitted via: CDex 1.51
#
DISCID=a10a930d
DTITLE=Various Artist - Style Bossa Collection "Light"
DYEAR=2005
DGENRE=Bossa Nova
TTITLE0=Estancia/Breakout
TTITLE1=Angela/Samba de Verao
TTITLE2=Etienne/Time after time
TTITLE3=Sonia/Ouvertures eclair
TTITLE4=Farfesta/How insesitive
TTITLE5=Phonogenica/The continental
TTITLE6=Estancia/Nadien mas
TTITLE7=Etienne/Non stop to Brazil
TTITLE8=Farfesta/S'wonderful
TTITLE9=Brazilian mood/I'm in the mood for dancing
TTITLE10=Etienne/One note samba
TTITLE11=Sonia/La isla bonita
TTITLE12=Claudio B./O barquinho
EXTD=YEAR: 2005
EXTT0=
EXTT1=
EXTT2=
EXTT3=
EXTT4=
EXTT5=
EXTT6=
EXTT7=
EXTT8=
EXTT9=
EXTT10=
EXTT11=
EXTT12=
PLAYORDER=
